<?xml version="1.0" encoding="UTF-8"?>
<svg version="1.1" xmlns="http://www.w3.org/2000/svg" width="800" height="600">
<path d="M0 0 C264 0 528 0 800 0 C800 198 800 396 800 600 C536 600 272 600 0 600 C0 402 0 204 0 0 Z " fill="#FEFEFE" transform="translate(0,0)"/>
<path d="M0 0 C9.20521543 7.45242474 18.66112418 16.3052847 22 28 C4.23870278 29.47068066 4.23870278 29.47068066 -0.67578125 26.2421875 C-2.39570485 23.90941756 -3.70847463 21.59132974 -5 19 C-12.43286062 8.71787615 -22.20707273 4.83064923 -34 1 C-34.86367188 0.7009375 -35.72734375 0.401875 -36.6171875 0.09375 C-38.73537326 -0.63918625 -40.8614781 -1.32909117 -43 -2 C-44.2375 -2.391875 -45.475 -2.78375 -46.75 -3.1875 C-61.577873 -6.57590067 -80.25892687 -2.97786922 -93.4453125 4.34375 C-96.85846203 6.55655642 -100.0516082 8.95973652 -103.16015625 11.58203125 C-105 13 -105 13 -108 14 C-108 14.66 -108 15.32 -108 16 C-108.66 16 -109.32 16 -110 16 C-110 16.66 -110 17.32 -110 18 C-111.66520018 19.66813187 -113.33216251 21.33450498 -115 23 C-127.7547714 40.10100344 -131.57180682 58.03649348 -129.7265625 79.125 C-126.70408628 98.28635866 -116.84452748 114.18403885 -101.25 125.625 C-90.36291629 132.91634964 -79.74057743 136.45188451 -67 139 C-67 122.83 -67 106.66 -67 90 C-80.53 90 -94.06 90 -108 90 C-108 84.72 -108 79.44 -108 74 C-94.47 74 -80.94 74 -67 74 C-67 60.8 -67 47.6 -67 34 C-61.39 34 -55.78 34 -50 34 C-50 47.53 -50 61.06 -50 75 C-23.27 75 3.46 75 31 75 C31 81.57275465 30.80933249 86.167282 28.9375 92.1875 C28.71489502 92.91654541 28.49229004 93.64559082 28.26293945 94.39672852 C24.58602827 105.91888694 19.15686259 116.01110771 11 125 C10.26136719 125.83144531 9.52273438 126.66289062 8.76171875 127.51953125 C-1.038631 137.96147509 -12.90169208 144.4755436 -26 150 C-26.66902344 150.31710937 -27.33804688 150.63421875 -28.02734375 150.9609375 C-35.16237819 154.1147164 -41.89248885 153.98656111 -50 155 C-50 170.51 -50 186.02 -50 202 C-55.61 202 -61.22 202 -67 202 C-67 186.49 -67 170.98 -67 155 C-71.95 154.34 -76.9 153.68 -82 153 C-104.70357513 146.09021627 -125.36781337 130.92365708 -137.3203125 110.16796875 C-139.77788218 105.53287803 -142.08919905 100.8884095 -144 96 C-144.25894043 95.44715332 -144.51788086 94.89430664 -144.78466797 94.32470703 C-147.88150909 86.82117705 -147.52259613 78.89192197 -147.50097656 70.90966797 C-147.50000995 68.40082832 -147.54159345 65.89511413 -147.5859375 63.38671875 C-147.75764625 40.10071347 -137.4721655 20.93415931 -121.6875 4.25 C-88.09772663 -27.86911779 -35.98182849 -28.22832481 0 0 Z " fill="#341674" transform="translate(327,207)"/>
<path d="M0 0 C20.13 0 40.26 0 61 0 C57.2338672 12.55377599 52.98138494 19.83532149 44 29 C43.40703125 29.6290625 42.8140625 30.258125 42.203125 30.90625 C32.21416393 40.63001741 13.74060377 49 0 49 C0 32.83 0 16.66 0 0 Z " fill="#FCFBFD" transform="translate(277,297)"/>
<path d="M0 0 C3.58873522 2.58364271 6.16676309 5.7573549 8.2734375 9.63671875 C8.2734375 10.29671875 8.2734375 10.95671875 8.2734375 11.63671875 C6.35802612 11.74513826 4.44083977 11.82249954 2.5234375 11.88671875 C0.92242187 11.95632813 0.92242187 11.95632813 -0.7109375 12.02734375 C-4.42898536 11.54573133 -5.22952707 10.30435909 -7.7265625 7.63671875 C-10.78791824 6.89191664 -13.63544717 7.07469778 -16.7265625 7.63671875 C-19.59686119 9.43065543 -21.21787888 10.61935151 -22.7265625 13.63671875 C-23.12907712 18.86940881 -22.52740131 22.1761236 -19.7265625 26.63671875 C-15.99801214 29.12241899 -13.03545372 28.94016179 -8.7265625 28.63671875 C-6.37126969 28.21940857 -6.37126969 28.21940857 -4.7265625 27.63671875 C-4.3965625 26.31671875 -4.0665625 24.99671875 -3.7265625 23.63671875 C-7.3565625 23.63671875 -10.9865625 23.63671875 -14.7265625 23.63671875 C-14.7265625 20.66671875 -14.7265625 17.69671875 -14.7265625 14.63671875 C-6.8065625 14.63671875 1.1134375 14.63671875 9.2734375 14.63671875 C9.2734375 22.26597257 7.94757919 27.59610257 2.74609375 33.31640625 C-3.08329966 38.32998125 -7.76599303 39.20105843 -15.32421875 39.08203125 C-21.341948 38.29440653 -26.09367313 35.49368381 -30.1953125 31.04296875 C-34.3038948 25.29095353 -34.55802712 18.45850804 -33.7265625 11.63671875 C-31.19359 5.15143572 -26.40177547 0.78059298 -20.4765625 -2.67578125 C-12.95542687 -4.55606516 -6.7927191 -3.73920973 0 0 Z " fill="#3A1D78" transform="translate(406.7265625,362.36328125)"/>
<path d="M0 0 C4.26352748 3.16240984 8.26568309 6.91316835 9.58203125 12.15625 C9.73478516 13.26806641 9.73478516 13.26806641 9.890625 14.40234375 C6.1628275 14.75488502 2.60531629 14.94208522 -1.109375 14.40234375 C-2.80025722 12.42277433 -4.46767972 10.42289179 -6.109375 8.40234375 C-9.58732672 7.5614574 -12.62180209 7.64366431 -16.109375 8.40234375 C-18.98087577 10.11596555 -18.98087577 10.11596555 -20.109375 13.40234375 C-20.72667102 18.43005739 -20.91669661 23.02179157 -18.109375 27.40234375 C-14.44414345 29.84583145 -11.36967143 30.24942023 -7.109375 29.40234375 C-4.14886626 27.11034972 -4.14886626 27.11034972 -2.109375 24.40234375 C-1.109375 23.40234375 -1.109375 23.40234375 1.39453125 23.3046875 C2.40386719 23.31628906 3.41320312 23.32789063 4.453125 23.33984375 C5.46503906 23.34886719 6.47695313 23.35789062 7.51953125 23.3671875 C8.30199219 23.37878906 9.08445312 23.39039063 9.890625 23.40234375 C8.18912988 29.8989615 5.07449071 34.38447917 -0.671875 37.77734375 C-6.96246347 40.63019127 -14.10492262 40.44024548 -20.546875 38.21484375 C-25.60689839 34.63580281 -30.01905393 30.36031771 -32.109375 24.40234375 C-33.02708694 18.20083579 -32.61552423 12.66229827 -29.4453125 7.1875 C-22.28563053 -2.37967737 -10.79855065 -6.16746491 0 0 Z " fill="#3A1D78" transform="translate(491.109375,361.59765625)"/>
<path d="M0 0 C2.97 0 5.94 0 9 0 C11.14289934 5.21172878 13.27895787 10.42618778 15.40869141 15.64331055 C16.1343494 17.41816934 16.86187951 19.19226389 17.59130859 20.96557617 C18.63871055 23.51282922 19.67937607 26.06274378 20.71875 28.61328125 C21.04685669 29.40712723 21.37496338 30.20097321 21.7130127 31.01887512 C24 36.65838488 24 36.65838488 24 40 C20.37 40 16.74 40 13 40 C12.505 37.525 12.505 37.525 12 35 C7.05 35 2.1 35 -3 35 C-3.66 36.98 -4.32 38.96 -5 41 C-8.63 41 -12.26 41 -16 41 C-13.59517797 33.39033587 -10.68318271 26.01037134 -7.70166016 18.61352539 C-6.86737135 16.54357256 -6.03689438 14.47212124 -5.20703125 12.40039062 C-1.16449458 2.32898915 -1.16449458 2.32898915 0 0 Z " fill="#391C78" transform="translate(434,360)"/>
<path d="M0 0 C17.78625954 0 17.78625954 0 22.64453125 4.53515625 C26.83364552 10.01322875 27.62152402 13.18625519 27 20 C25.03565961 25.67476113 21.37199338 29.31400331 16 32 C10.72 32 5.44 32 0 32 C0 21.44 0 10.88 0 0 Z " fill="#F9F9FB" transform="translate(435,267)"/>
<path d="M0 0 C7.26 0 14.52 0 22 0 C22 2.97 22 5.94 22 9 C17.71 9 13.42 9 9 9 C9 10.98 9 12.96 9 15 C13.29 15 17.58 15 22 15 C22 18.3 22 21.6 22 25 C18.04 25 14.08 25 10 25 C10 26.98 10 28.96 10 31 C13.96 31 17.92 31 22 31 C22 33.97 22 36.94 22 40 C14.74 40 7.48 40 0 40 C0 26.8 0 13.6 0 0 Z " fill="#381A77" transform="translate(346,360)"/>
<path d="M0 0 C3.96 0 7.92 0 12 0 C13.65 4.62 15.3 9.24 17 14 C18.98 9.38 20.96 4.76 23 0 C26.63 0 30.26 0 34 0 C32.94625747 3.60460558 31.61297216 6.86660032 29.87109375 10.1796875 C24.36774722 20.72075592 21.58672709 29.01508556 22 41 C18.7 41 15.4 41 12 41 C12.020625 39.9584375 12.04125 38.916875 12.0625 37.84375 C12.00298315 26.83960206 9.392783 19.36250735 3.98144531 9.88623047 C2.32621385 6.70505676 1.18765824 3.37997079 0 0 Z " fill="#371A76" transform="translate(503,360)"/>
<path d="M0 0 C3.3 0 6.6 0 10 0 C10 10.56 10 21.12 10 32 C13.96 32 17.92 32 22 32 C22 34.64 22 37.28 22 40 C14.74 40 7.48 40 0 40 C0 26.8 0 13.6 0 0 Z " fill="#341674" transform="translate(319,360)"/>
<path d="M0 0 C1.65 0 3.3 0 5 0 C9.29 10.23 13.58 20.46 18 31 C16.68 31.33 15.36 31.66 14 32 C12.68 29.03 11.36 26.06 10 23 C5.05 23 0.1 23 -5 23 C-6.98 27.455 -6.98 27.455 -9 32 C-9.99 32 -10.98 32 -12 32 C-11.33553963 27.93720499 -10.06349163 24.406859 -8.49609375 20.60546875 C-8.00302734 19.40341797 -7.50996094 18.20136719 -7.00195312 16.96289062 C-6.48056595 15.70438681 -5.95908034 14.44592377 -5.4375 13.1875 C-4.91169842 11.90967423 -4.38630353 10.63168104 -3.86132812 9.35351562 C-2.57820948 6.234007 -1.29096615 3.11626734 0 0 Z " fill="#472C81" transform="translate(519,267)"/>
<path d="M0 0 C1.65 0 3.3 0 5 0 C6.6945704 3.91271617 8.38512435 7.82713566 10.07202148 11.74316406 C10.64612244 13.07436572 11.2213071 14.40510057 11.79760742 15.73535156 C12.62706117 17.65046652 13.45256868 19.56724126 14.27734375 21.484375 C14.77484131 22.63647461 15.27233887 23.78857422 15.78491211 24.97558594 C16.73410926 27.33818475 17.48574017 29.5166313 18 32 C16.68 32 15.36 32 14 32 C13.32880451 30.5437455 12.66318193 29.08492133 12 27.625 C11.62875 26.81289063 11.2575 26.00078125 10.875 25.1640625 C10 23 10 23 10 21 C5.05 21 0.1 21 -5 21 C-5.474375 22.44375 -5.94875 23.8875 -6.4375 25.375 C-7.19397017 27.67730051 -7.91608814 29.83217629 -9 32 C-10.32 31.67 -11.64 31.34 -13 31 C-8.71 20.77 -4.42 10.54 0 0 Z " fill="#41257D" transform="translate(489,312)"/>
<path d="M0 0 C2.53594475 1.73186471 4.58855397 3.39644896 6.5625 5.75 C6.5625 6.41 6.5625 7.07 6.5625 7.75 C5.2425 7.75 3.9225 7.75 2.5625 7.75 C1.881875 6.925 1.20125 6.1 0.5 5.25 C-3.35448628 1.96958615 -5.81440815 2.2618082 -10.71875 2.37890625 C-13.59708312 2.77178218 -15.83245426 3.47248193 -18.4375 4.75 C-21.29320071 9.10154393 -21.09567351 14.73343362 -20.4375 19.75 C-18.81665526 22.99168949 -17.49551565 24.94736744 -14.625 27.125 C-10.18247728 28.39429221 -6.56085282 28.16850399 -2.25 26.5625 C1.11118147 24.60735984 1.11118147 24.60735984 4.5625 19.75 C-1.0475 19.75 -6.6575 19.75 -12.4375 19.75 C-12.4375 18.43 -12.4375 17.11 -12.4375 15.75 C-5.5075 15.75 1.4225 15.75 8.5625 15.75 C7.57226564 22.68164051 7.33001958 24.18976388 2.5625 28.75 C-2.67480757 31.71451372 -6.57457426 32.30837388 -12.4375 31.75 C-17.87629866 29.90080845 -21.21111725 26.37413162 -24.4375 21.75 C-25.95660761 17.19267716 -26.4028845 13.05111047 -24.53125 8.58984375 C-18.88529655 -1.09151874 -10.55467649 -3.83806418 0 0 Z " fill="#452980" transform="translate(392.4375,268.25)"/>
<path d="M0 0 C1.65 0 3.3 0 5 0 C7.03637695 2.203125 7.03637695 2.203125 8.98828125 5.25 C9.69404297 6.3328125 10.39980469 7.415625 11.12695312 8.53125 C11.85584907 9.68726029 12.58435982 10.84351353 13.3125 12 C14.05894303 13.15728605 14.80697248 14.31355051 15.55664062 15.46875 C17.38674177 18.302455 19.19541142 21.14997996 21 24 C21.33 16.08 21.66 8.16 22 0 C23.32 0 24.64 0 26 0 C26 10.56 26 21.12 26 32 C21 31 21 31 19.30249023 29.23754883 C18.80950439 28.48497803 18.31651855 27.73240723 17.80859375 26.95703125 C16.98004883 25.71663086 16.98004883 25.71663086 16.13476562 24.45117188 C15.57466797 23.58041016 15.01457031 22.70964844 14.4375 21.8125 C13.87353516 20.96107422 13.30957031 20.10964844 12.72851562 19.23242188 C11.66835533 17.62916193 10.61416122 16.02192813 9.56811523 14.40942383 C7.73427466 11.59171051 5.8648555 8.79728325 4 6 C3.67 14.58 3.34 23.16 3 32 C2.01 32 1.02 32 0 32 C0 21.44 0 10.88 0 0 Z " fill="#43287F" transform="translate(477,267)"/>
<path d="M0 0 C17.78625954 0 17.78625954 0 22.64453125 4.53515625 C26.83364552 10.01322875 27.62152402 13.18625519 27 20 C25.03565961 25.67476113 21.37199338 29.31400331 16 32 C10.72 32 5.44 32 0 32 C0 21.44 0 10.88 0 0 Z M3 3 C3 11.91 3 20.82 3 30 C9.54700241 30.06832775 9.54700241 30.06832775 15.25 28.25 C16.49523437 27.76273437 16.49523437 27.76273437 17.765625 27.265625 C21.3706379 25.22362469 22.70888834 22.87333499 24 19 C24.39177998 14.84713223 24.25515206 12.51030413 22.375 8.75 C19.6128513 5.55172256 18.0251266 4.31731416 14 3 C10.37 3 6.74 3 3 3 Z " fill="#391C78" transform="translate(435,267)"/>
<path d="M0 0 C1.32 0 2.64 0 4 0 C4.01458252 0.70084717 4.02916504 1.40169434 4.04418945 2.1237793 C4.11885487 5.31223009 4.21545475 8.49965513 4.3125 11.6875 C4.33505859 12.79029297 4.35761719 13.89308594 4.38085938 15.02929688 C4.41630859 16.09599609 4.45175781 17.16269531 4.48828125 18.26171875 C4.51446533 19.24100342 4.54064941 20.22028809 4.56762695 21.22924805 C5.07275448 24.46622847 6.01734887 26.40275918 8 29 C12.08600528 29.59587577 13.52648925 29.31567384 17 27 C18.01587978 23.95236066 18.19804406 21.65281033 18.31640625 18.45703125 C18.35830078 17.38388672 18.40019531 16.31074219 18.44335938 15.20507812 C18.48267578 14.08552734 18.52199219 12.96597656 18.5625 11.8125 C18.60568359 10.68134766 18.64886719 9.55019531 18.69335938 8.38476562 C18.79949099 5.58996646 18.90154385 2.79507838 19 0 C19.99 0 20.98 0 22 0 C22.14570522 4.20796686 22.23421087 8.41528166 22.3125 12.625 C22.35439453 13.81480469 22.39628906 15.00460937 22.43945312 16.23046875 C22.57765335 26.12560504 22.57765335 26.12560504 19.76171875 29.76953125 C15.83858123 32.93800583 12.94438748 33.37757141 8 33 C4.63091734 31.75490423 3.40567587 30.58749687 1.37890625 27.65234375 C-0.63773515 22.31081484 -0.31738208 17.27986613 -0.1875 11.625 C-0.17396484 10.50738281 -0.16042969 9.38976562 -0.14648438 8.23828125 C-0.11127164 5.49168789 -0.06202096 2.74609711 0 0 Z " fill="#462B80" transform="translate(406,267)"/>
<path d="M0 0 C0.99 0 1.98 0 3 0 C3 4.62 3 9.24 3 14 C8.28 14 13.56 14 19 14 C19 9.38 19 4.76 19 0 C19.99 0 20.98 0 22 0 C22 10.56 22 21.12 22 32 C21.01 32 20.02 32 19 32 C19 27.05 19 22.1 19 17 C13.72 17 8.44 17 3 17 C3 21.95 3 26.9 3 32 C2.01 32 1.02 32 0 32 C0 21.44 0 10.88 0 0 Z " fill="#3B1E79" transform="translate(446,312)"/>
<path d="M0 0 C5.94 0 11.88 0 18 0 C18 0.99 18 1.98 18 3 C13.38 3 8.76 3 4 3 C4 6.63 4 10.26 4 14 C8.29 14 12.58 14 17 14 C17 14.99 17 15.98 17 17 C12.38 17 7.76 17 3 17 C3 20.96 3 24.92 3 29 C7.95 29 12.9 29 18 29 C18 29.99 18 30.98 18 32 C12.06 32 6.12 32 0 32 C0 21.44 0 10.88 0 0 Z " fill="#44287F" transform="translate(418,312)"/>
<path d="M0 0 C3.34265205 1.20706879 3.94704566 1.92056849 6 5 C6 6.32 6 7.64 6 9 C5.01 9 4.02 9 3 9 C2.79375 8.360625 2.5875 7.72125 2.375 7.0625 C1.10770429 4.68231858 1.10770429 4.68231858 -2 4.125 C-2.99 4.08375 -3.98 4.0425 -5 4 C-7.5654594 6.5654594 -7.54046087 8.47686668 -8 12 C-7.41992188 12.15855469 -6.83984375 12.31710937 -6.2421875 12.48046875 C-0.77293664 14.11402388 3.17077938 15.67985366 7 20 C7.58908505 24.19723095 7.47850614 27.47791232 5 31 C0.777593 33.814938 -3.04361738 33.92340249 -8 33 C-10.53790958 31.22009439 -11.37894971 29.75578549 -13 27 C-13 26.01 -13 25.02 -13 24 C-11.68 24 -10.36 24 -9 24 C-8.67 25.65 -8.34 27.3 -8 29 C-6.54207116 29.05399736 -5.08357288 29.09279177 -3.625 29.125 C-2.81289063 29.14820313 -2.00078125 29.17140625 -1.1640625 29.1953125 C1.21342243 29.21370051 1.21342243 29.21370051 3 27 C3.41679297 24.54230847 3.41679297 24.54230847 3 22 C0.8565886 19.33594923 -1.35088153 18.28540767 -4.5 17.0625 C-10.63879039 14.40302403 -10.63879039 14.40302403 -12 11 C-12 6.76711284 -11.66316819 4.73895884 -8.8125 1.5625 C-5.50745856 -0.27363413 -3.7271242 -0.47580309 0 0 Z " fill="#472C81" transform="translate(403,311)"/>
<path d="M0 0 C1.32 0 2.64 0 4 0 C6.64 5.28 9.28 10.56 12 16 C14.55820816 12.58905579 16.32943579 9.54870905 18.1875 5.75 C18.98220703 4.13351562 18.98220703 4.13351562 19.79296875 2.484375 C20.19128906 1.66453125 20.58960938 0.8446875 21 0 C22.32 0.33 23.64 0.66 25 1 C24.70230713 1.54825439 24.40461426 2.09650879 24.09790039 2.66137695 C22.73300005 5.20167478 21.39785723 7.75655703 20.0625 10.3125 C19.59392578 11.17423828 19.12535156 12.03597656 18.64257812 12.92382812 C15.34398232 19.30744158 14.14408466 24.82423887 14 32 C13.01 32 12.02 32 11 32 C11.04382813 31.35417969 11.08765625 30.70835937 11.1328125 30.04296875 C11.10397018 19.50109941 6.05450459 11.58861398 0.90209961 2.66723633 C0 1 0 1 0 0 Z " fill="#3C207A" transform="translate(512,312)"/>
<path d="M0 0 C7.28358209 -0.35820896 7.28358209 -0.35820896 10 1 C11.63102777 4.26205554 11.51981506 7.43555389 11 11 C10 13 10 13 8 14 C5.28114681 14.23059307 2.74008408 14.13475823 0 14 C0 9.38 0 4.76 0 0 Z " fill="#452A80" transform="translate(576,300)"/>
<path d="M0 0 C5.94 0 11.88 0 18 0 C18 0.99 18 1.98 18 3 C15.36 3 12.72 3 10 3 C10 12.57 10 22.14 10 32 C9.01 32 8.02 32 7 32 C7 22.43 7 12.86 7 3 C4.69 3 2.38 3 0 3 C0 2.01 0 1.02 0 0 Z " fill="#3D217B" transform="translate(368,312)"/>
<path d="M0 0 C6.93 0 13.86 0 21 0 C20.01619587 6.8866289 19.74552796 8.4653844 15 13 C11.6875 14.375 11.6875 14.375 9 15 C9.26088269 11.47808373 10.24314592 10.78724732 13 8.375 C13.99 7.59125 14.98 6.8075 16 6 C16.33 5.34 16.66 4.68 17 4 C11.39 4 5.78 4 0 4 C0 2.68 0 1.36 0 0 Z " fill="#563E8C" transform="translate(380,284)"/>
<path d="M0 0 C1.32 0 2.64 0 4 0 C5.32 2.64 6.64 5.28 8 8 C8.33 5.36 8.66 2.72 9 0 C9.99 0 10.98 0 12 0 C12 4.95 12 9.9 12 15 C8 14 8 14 6.734375 12.37109375 C5.82291667 10.58072917 4.91145833 8.79036458 4 7 C3.67 9.64 3.34 12.28 3 15 C2.01 15 1.02 15 0 15 C0 10.05 0 5.1 0 0 Z " fill="#4C3285" transform="translate(561,299)"/>
<path d="M0 0 C1.828125 0.08984375 1.828125 0.08984375 4 1 C5.484375 3.94140625 5.484375 3.94140625 6.75 7.5625 C7.39195312 9.35880859 7.39195312 9.35880859 8.046875 11.19140625 C8.36140625 12.11824219 8.6759375 13.04507812 9 14 C7.68 13.67 6.36 13.34 5 13 C5 12.34 5 11.68 5 11 C2.02934491 11.34227572 2.02934491 11.34227572 -1 12 C-1.33 12.66 -1.66 13.32 -2 14 C-2.99 14 -3.98 14 -5 14 C-4.34580901 8.93001981 -2.1453591 4.58009223 0 0 Z " fill="#553C8B" transform="translate(551,300)"/>
<path d="M0 0 C0.99 0 1.98 0 3 0 C3 10.56 3 21.12 3 32 C2.01 32 1.02 32 0 32 C0 21.44 0 10.88 0 0 Z " fill="#3C1F7A" transform="translate(467,267)"/>
<path d="M0 0 C2.7920147 1.39600735 3.00162933 3.00416384 4.125 5.875 C4.65480469 7.20144531 4.65480469 7.20144531 5.1953125 8.5546875 C6 11 6 11 6 14 C2.37 14 -1.26 14 -5 14 C-2.05357143 3.82142857 -2.05357143 3.82142857 0 0 Z " fill="#F4F2F7" transform="translate(491,316)"/>
<path d="M0 0 C3.58880268 4.30254214 4.52200925 8.6510811 6 14 C2.37 14 -1.26 14 -5 14 C-2.05357143 3.82142857 -2.05357143 3.82142857 0 0 Z " fill="#F3F1F6" transform="translate(521,271)"/>
<path d="M0 0 C3.5718623 3.5718623 4 8.10186234 4 13 C1.69 13 -0.62 13 -3 13 C-2.52060632 8.28596212 -2.03165952 4.33420699 0 0 Z " fill="#ECE9F2" transform="translate(438,373)"/>
<path d="M0 0 C4 1 4 1 6 3 C5.625 5.625 5.625 5.625 5 8 C3.35 8.33 1.7 8.66 0 9 C0 6.03 0 3.06 0 0 Z " fill="#F5F4F8" transform="translate(579,302)"/>
<path d="M0 0 C6.32258065 -0.48635236 6.32258065 -0.48635236 9.4375 1.75 C11 4 11 4 11 8 C10.01 8 9.02 8 8 8 C7.7215625 7.0409375 7.7215625 7.0409375 7.4375 6.0625 C6.05753944 3.57873787 6.05753944 3.57873787 2.375 3.25 C1.26125 3.1675 0.1475 3.085 -1 3 C-0.67 2.01 -0.34 1.02 0 0 Z " fill="#391D78" transform="translate(398,312)"/>
<path d="M0 0 C0.99 0 1.98 0 3 0 C2.5020163 3.73487777 2.12508244 5.81237635 0 9 C-0.99 9 -1.98 9 -3 9 C-2.01 6.03 -1.02 3.06 0 0 Z " fill="#482D82" transform="translate(486,319)"/>
<path d="M0 0 C1.98 0.495 1.98 0.495 4 1 C4.33 2.32 4.66 3.64 5 5 C2.03 4.505 2.03 4.505 -1 4 C-0.67 2.68 -0.34 1.36 0 0 Z " fill="#3F237C" transform="translate(551,300)"/>
</svg>
