<?xml version="1.0" encoding="UTF-8"?>
<svg xmlns="http://www.w3.org/2000/svg" xmlns:xlink="http://www.w3.org/1999/xlink" width="700px" height="525px" viewBox="0 0 700 525" version="1.1">
<g id="surface1">
<path style=" stroke:none;fill-rule:nonzero;fill:rgb(99.607843%,99.607843%,99.607843%);fill-opacity:1;" d="M 0 0 C 231 0 462 0 700 0 C 700 173.25 700 346.5 700 525 C 469 525 238 525 0 525 C 0 351.75 0 178.5 0 0 Z M 0 0 "/>
<path style=" stroke:none;fill-rule:nonzero;fill:rgb(20.392157%,8.627451%,45.490196%);fill-opacity:1;" d="M 286.125 181.125 C 294.179688 187.644531 302.453125 195.390625 305.375 205.625 C 289.832031 206.910156 289.832031 206.910156 285.535156 204.085938 C 284.027344 202.046875 282.878906 200.015625 281.75 197.75 C 275.246094 188.753906 266.695312 185.351562 256.375 182 C 255.621094 181.738281 254.863281 181.476562 254.085938 181.207031 C 252.230469 180.566406 250.371094 179.960938 248.5 179.375 C 247.417969 179.03125 246.335938 178.6875 245.21875 178.335938 C 232.246094 175.371094 215.898438 178.519531 204.359375 184.925781 C 201.375 186.863281 198.578125 188.964844 195.859375 191.257812 C 194.25 192.5 194.25 192.5 191.625 193.375 C 191.625 193.953125 191.625 194.53125 191.625 195.125 C 191.046875 195.125 190.46875 195.125 189.875 195.125 C 189.875 195.703125 189.875 196.28125 189.875 196.875 C 188.417969 198.335938 186.960938 199.792969 185.5 201.25 C 174.339844 216.214844 171 231.90625 172.613281 250.359375 C 175.257812 267.125 183.886719 281.035156 197.53125 291.046875 C 207.058594 297.425781 216.351562 300.519531 227.5 302.75 C 227.5 288.601562 227.5 274.453125 227.5 259.875 C 215.660156 259.875 203.824219 259.875 191.625 259.875 C 191.625 255.253906 191.625 250.636719 191.625 245.875 C 203.464844 245.875 215.300781 245.875 227.5 245.875 C 227.5 234.324219 227.5 222.773438 227.5 210.875 C 232.410156 210.875 237.316406 210.875 242.375 210.875 C 242.375 222.714844 242.375 234.550781 242.375 246.75 C 265.765625 246.75 289.152344 246.75 313.25 246.75 C 313.25 252.5 313.082031 256.519531 311.445312 261.789062 C 311.25 262.425781 311.054688 263.066406 310.855469 263.722656 C 307.636719 273.804688 302.886719 282.632812 295.75 290.5 C 295.105469 291.226562 294.457031 291.953125 293.792969 292.703125 C 285.214844 301.839844 274.835938 307.542969 263.375 312.375 C 262.789062 312.652344 262.203125 312.929688 261.601562 313.214844 C 255.359375 315.976562 249.46875 315.863281 242.375 316.75 C 242.375 330.320312 242.375 343.890625 242.375 357.875 C 237.464844 357.875 232.558594 357.875 227.5 357.875 C 227.5 344.304688 227.5 330.734375 227.5 316.75 C 223.167969 316.171875 218.835938 315.59375 214.375 315 C 194.507812 308.953125 176.429688 295.683594 165.96875 277.523438 C 163.820312 273.464844 161.796875 269.402344 160.125 265.125 C 159.898438 264.640625 159.671875 264.15625 159.4375 263.660156 C 156.730469 257.09375 157.042969 250.15625 157.0625 243.171875 C 157.0625 240.976562 157.027344 238.785156 156.988281 236.589844 C 156.835938 216.214844 165.835938 199.441406 179.648438 184.84375 C 209.039062 156.738281 254.640625 156.425781 286.125 181.125 Z M 286.125 181.125 "/>
<path style=" stroke:none;fill-rule:nonzero;fill:rgb(98.823529%,98.431373%,99.215686%);fill-opacity:1;" d="M 242.375 259.875 C 259.988281 259.875 277.601562 259.875 295.75 259.875 C 292.453125 270.859375 288.734375 277.230469 280.875 285.25 C 280.355469 285.800781 279.835938 286.351562 279.304688 286.917969 C 270.5625 295.425781 254.398438 302.75 242.375 302.75 C 242.375 288.601562 242.375 274.453125 242.375 259.875 Z M 242.375 259.875 "/>
<path style=" stroke:none;fill-rule:nonzero;fill:rgb(22.745098%,11.372549%,47.058824%);fill-opacity:1;" d="M 355.886719 317.066406 C 359.027344 319.328125 361.28125 322.105469 363.125 325.5 C 363.125 326.078125 363.125 326.65625 363.125 327.25 C 361.449219 327.34375 359.769531 327.414062 358.09375 327.46875 C 356.691406 327.53125 356.691406 327.53125 355.265625 327.59375 C 352.011719 327.171875 351.308594 326.085938 349.125 323.75 C 346.445312 323.097656 343.953125 323.257812 341.25 323.75 C 338.738281 325.320312 337.320312 326.359375 336 329 C 335.648438 333.578125 336.175781 336.472656 338.625 340.375 C 341.886719 342.550781 344.480469 342.390625 348.25 342.125 C 350.3125 341.761719 350.3125 341.761719 351.75 341.25 C 352.039062 340.09375 352.328125 338.941406 352.625 337.75 C 349.449219 337.75 346.273438 337.75 343 337.75 C 343 335.152344 343 332.550781 343 329.875 C 349.929688 329.875 356.859375 329.875 364 329.875 C 364 336.550781 362.839844 341.214844 358.289062 346.21875 C 353.1875 350.605469 349.089844 351.367188 342.476562 351.265625 C 337.210938 350.574219 333.054688 348.125 329.464844 344.230469 C 325.871094 339.199219 325.648438 333.21875 326.375 327.25 C 328.589844 321.574219 332.785156 317.75 337.96875 314.726562 C 344.550781 313.082031 349.941406 313.796875 355.886719 317.066406 Z M 355.886719 317.066406 "/>
<path style=" stroke:none;fill-rule:nonzero;fill:rgb(22.745098%,11.372549%,47.058824%);fill-opacity:1;" d="M 429.71875 316.398438 C 433.453125 319.164062 436.953125 322.445312 438.105469 327.035156 C 438.238281 328.007812 438.238281 328.007812 438.375 329 C 435.113281 329.308594 432 329.472656 428.75 329 C 427.269531 327.269531 425.8125 325.519531 424.375 323.75 C 421.332031 323.015625 418.675781 323.085938 415.625 323.75 C 413.113281 325.25 413.113281 325.25 412.125 328.125 C 411.585938 332.523438 411.417969 336.542969 413.875 340.375 C 417.082031 342.511719 419.773438 342.867188 423.5 342.125 C 426.089844 340.121094 426.089844 340.121094 427.875 337.75 C 428.75 336.875 428.75 336.875 430.941406 336.789062 C 431.824219 336.800781 432.707031 336.808594 433.617188 336.820312 C 434.503906 336.828125 435.386719 336.835938 436.300781 336.84375 C 436.984375 336.855469 437.667969 336.863281 438.375 336.875 C 436.886719 342.558594 434.160156 346.484375 429.132812 349.453125 C 423.628906 351.949219 417.378906 351.78125 411.742188 349.835938 C 407.316406 346.703125 403.453125 342.964844 401.625 337.75 C 400.820312 332.324219 401.183594 327.476562 403.957031 322.6875 C 410.222656 314.316406 420.273438 311 429.71875 316.398438 Z M 429.71875 316.398438 "/>
<path style=" stroke:none;fill-rule:nonzero;fill:rgb(22.352941%,10.980392%,47.058824%);fill-opacity:1;" d="M 379.75 315 C 382.347656 315 384.949219 315 387.625 315 C 389.5 319.558594 391.367188 324.121094 393.234375 328.6875 C 393.867188 330.242188 394.503906 331.792969 395.140625 333.34375 C 396.058594 335.574219 396.96875 337.804688 397.878906 340.035156 C 398.164062 340.730469 398.453125 341.425781 398.75 342.140625 C 400.75 347.074219 400.75 347.074219 400.75 350 C 397.574219 350 394.398438 350 391.125 350 C 390.691406 347.835938 390.691406 347.835938 390.25 345.625 C 385.917969 345.625 381.585938 345.625 377.125 345.625 C 376.546875 347.359375 375.96875 349.089844 375.375 350.875 C 372.199219 350.875 369.023438 350.875 365.75 350.875 C 367.855469 344.214844 370.402344 337.757812 373.011719 331.285156 C 373.742188 329.476562 374.46875 327.664062 375.195312 325.851562 C 378.730469 317.039062 378.730469 317.039062 379.75 315 Z M 379.75 315 "/>
<path style=" stroke:none;fill-rule:nonzero;fill:rgb(97.647059%,97.647059%,98.431373%);fill-opacity:1;" d="M 380.625 233.625 C 396.1875 233.625 396.1875 233.625 400.4375 237.59375 C 404.105469 242.386719 404.792969 245.164062 404.25 251.125 C 402.53125 256.089844 399.324219 259.273438 394.625 261.625 C 390.003906 261.625 385.386719 261.625 380.625 261.625 C 380.625 252.386719 380.625 243.144531 380.625 233.625 Z M 380.625 233.625 "/>
<path style=" stroke:none;fill-rule:nonzero;fill:rgb(21.960784%,10.196079%,46.666667%);fill-opacity:1;" d="M 302.75 315 C 309.101562 315 315.453125 315 322 315 C 322 317.597656 322 320.199219 322 322.875 C 318.246094 322.875 314.492188 322.875 310.625 322.875 C 310.625 324.609375 310.625 326.339844 310.625 328.125 C 314.378906 328.125 318.132812 328.125 322 328.125 C 322 331.011719 322 333.898438 322 336.875 C 318.535156 336.875 315.070312 336.875 311.5 336.875 C 311.5 338.609375 311.5 340.339844 311.5 342.125 C 314.964844 342.125 318.429688 342.125 322 342.125 C 322 344.722656 322 347.324219 322 350 C 315.648438 350 309.296875 350 302.75 350 C 302.75 338.449219 302.75 326.898438 302.75 315 Z M 302.75 315 "/>
<path style=" stroke:none;fill-rule:nonzero;fill:rgb(21.568628%,10.196079%,46.27451%);fill-opacity:1;" d="M 440.125 315 C 443.589844 315 447.054688 315 450.625 315 C 452.070312 319.042969 453.511719 323.085938 455 327.25 C 456.734375 323.207031 458.464844 319.164062 460.25 315 C 463.425781 315 466.601562 315 469.875 315 C 468.953125 318.152344 467.785156 321.007812 466.261719 323.90625 C 461.445312 333.128906 459.011719 340.386719 459.375 350.875 C 456.488281 350.875 453.601562 350.875 450.625 350.875 C 450.644531 349.964844 450.660156 349.050781 450.679688 348.113281 C 450.628906 338.484375 448.34375 331.941406 443.609375 323.652344 C 442.160156 320.867188 441.164062 317.957031 440.125 315 Z M 440.125 315 "/>
<path style=" stroke:none;fill-rule:nonzero;fill:rgb(20.392157%,8.627451%,45.490196%);fill-opacity:1;" d="M 279.125 315 C 282.011719 315 284.898438 315 287.875 315 C 287.875 324.238281 287.875 333.480469 287.875 343 C 291.339844 343 294.804688 343 298.375 343 C 298.375 345.308594 298.375 347.621094 298.375 350 C 292.023438 350 285.671875 350 279.125 350 C 279.125 338.449219 279.125 326.898438 279.125 315 Z M 279.125 315 "/>
<path style=" stroke:none;fill-rule:nonzero;fill:rgb(27.843139%,17.254902%,50.588238%);fill-opacity:1;" d="M 454.125 233.625 C 455.570312 233.625 457.011719 233.625 458.5 233.625 C 462.253906 242.578125 466.007812 251.527344 469.875 260.75 C 468.71875 261.039062 467.566406 261.328125 466.375 261.625 C 465.21875 259.027344 464.066406 256.425781 462.875 253.75 C 458.542969 253.75 454.210938 253.75 449.75 253.75 C 448.015625 257.648438 448.015625 257.648438 446.25 261.625 C 445.382812 261.625 444.515625 261.625 443.625 261.625 C 444.207031 258.070312 445.320312 254.980469 446.691406 251.65625 C 447.121094 250.601562 447.554688 249.550781 448 248.46875 C 448.453125 247.367188 448.910156 246.265625 449.367188 245.164062 C 449.828125 244.046875 450.285156 242.925781 450.746094 241.808594 C 451.867188 239.078125 452.996094 236.351562 454.125 233.625 Z M 454.125 233.625 "/>
<path style=" stroke:none;fill-rule:nonzero;fill:rgb(25.490198%,14.509805%,49.019608%);fill-opacity:1;" d="M 427.875 273 C 429.320312 273 430.761719 273 432.25 273 C 433.734375 276.421875 435.210938 279.847656 436.6875 283.273438 C 437.191406 284.441406 437.695312 285.605469 438.199219 286.769531 C 438.921875 288.445312 439.644531 290.121094 440.367188 291.796875 C 440.804688 292.808594 441.238281 293.816406 441.6875 294.855469 C 442.515625 296.921875 443.175781 298.828125 443.625 301 C 442.46875 301 441.316406 301 440.125 301 C 439.539062 299.726562 438.957031 298.449219 438.375 297.171875 C 438.050781 296.460938 437.726562 295.75 437.390625 295.019531 C 436.625 293.125 436.625 293.125 436.625 291.375 C 432.292969 291.375 427.960938 291.375 423.5 291.375 C 423.085938 292.636719 422.667969 293.902344 422.242188 295.203125 C 421.582031 297.21875 420.949219 299.101562 420 301 C 418.84375 300.710938 417.691406 300.421875 416.5 300.125 C 420.253906 291.171875 424.007812 282.222656 427.875 273 Z M 427.875 273 "/>
<path style=" stroke:none;fill-rule:nonzero;fill:rgb(27.058825%,16.078432%,50.196081%);fill-opacity:1;" d="M 343.382812 234.71875 C 345.601562 236.234375 347.398438 237.691406 349.125 239.75 C 349.125 240.328125 349.125 240.90625 349.125 241.5 C 347.96875 241.5 346.816406 241.5 345.625 241.5 C 345.03125 240.777344 344.433594 240.054688 343.820312 239.3125 C 340.449219 236.441406 338.296875 236.699219 334.003906 236.800781 C 331.484375 237.144531 329.53125 237.757812 327.25 238.875 C 324.75 242.683594 324.925781 247.609375 325.5 252 C 326.917969 254.835938 328.074219 256.546875 330.585938 258.453125 C 334.472656 259.5625 337.640625 259.367188 341.414062 257.960938 C 344.355469 256.25 344.355469 256.25 347.375 252 C 342.464844 252 337.558594 252 332.5 252 C 332.5 250.84375 332.5 249.691406 332.5 248.5 C 338.5625 248.5 344.628906 248.5 350.875 248.5 C 350.007812 254.566406 349.796875 255.886719 345.625 259.875 C 341.042969 262.46875 337.628906 262.988281 332.5 262.5 C 327.742188 260.882812 324.824219 257.796875 322 253.75 C 320.671875 249.761719 320.28125 246.136719 321.917969 242.234375 C 326.859375 233.761719 334.148438 231.359375 343.382812 234.71875 Z M 343.382812 234.71875 "/>
<path style=" stroke:none;fill-rule:nonzero;fill:rgb(26.274511%,15.686275%,49.803922%);fill-opacity:1;" d="M 417.375 233.625 C 418.820312 233.625 420.261719 233.625 421.75 233.625 C 423.53125 235.554688 423.53125 235.554688 425.238281 238.21875 C 425.855469 239.167969 426.476562 240.113281 427.109375 241.089844 C 427.75 242.101562 428.386719 243.113281 429.023438 244.125 C 429.675781 245.136719 430.332031 246.148438 430.988281 247.160156 C 432.589844 249.640625 434.171875 252.132812 435.75 254.625 C 436.039062 247.695312 436.328125 240.765625 436.625 233.625 C 437.78125 233.625 438.933594 233.625 440.125 233.625 C 440.125 242.863281 440.125 252.105469 440.125 261.625 C 435.75 260.75 435.75 260.75 434.265625 259.207031 C 433.832031 258.550781 433.402344 257.890625 432.957031 257.210938 C 432.234375 256.128906 432.234375 256.128906 431.492188 255.019531 C 431.003906 254.257812 430.511719 253.496094 430.007812 252.710938 C 429.515625 251.964844 429.019531 251.222656 428.511719 250.453125 C 427.585938 249.050781 426.664062 247.644531 425.746094 246.234375 C 424.140625 243.769531 422.507812 241.324219 420.875 238.875 C 420.585938 246.382812 420.296875 253.890625 420 261.625 C 419.132812 261.625 418.265625 261.625 417.375 261.625 C 417.375 252.386719 417.375 243.144531 417.375 233.625 Z M 417.375 233.625 "/>
<path style=" stroke:none;fill-rule:nonzero;fill:rgb(22.352941%,10.980392%,47.058824%);fill-opacity:1;" d="M 380.625 233.625 C 396.1875 233.625 396.1875 233.625 400.4375 237.59375 C 404.105469 242.386719 404.792969 245.164062 404.25 251.125 C 402.53125 256.089844 399.324219 259.273438 394.625 261.625 C 390.003906 261.625 385.386719 261.625 380.625 261.625 C 380.625 252.386719 380.625 243.144531 380.625 233.625 Z M 383.25 236.25 C 383.25 244.046875 383.25 251.84375 383.25 259.875 C 388.980469 259.933594 388.980469 259.933594 393.96875 258.34375 C 395.058594 257.917969 395.058594 257.917969 396.171875 257.484375 C 399.324219 255.695312 400.496094 253.640625 401.625 250.25 C 401.96875 246.617188 401.847656 244.570312 400.203125 241.28125 C 397.785156 238.484375 396.398438 237.402344 392.875 236.25 C 389.699219 236.25 386.523438 236.25 383.25 236.25 Z M 383.25 236.25 "/>
<path style=" stroke:none;fill-rule:nonzero;fill:rgb(27.450982%,16.862746%,50.196081%);fill-opacity:1;" d="M 355.25 233.625 C 356.40625 233.625 357.558594 233.625 358.75 233.625 C 358.761719 234.238281 358.777344 234.851562 358.789062 235.484375 C 358.855469 238.273438 358.9375 241.0625 359.023438 243.851562 C 359.042969 244.816406 359.0625 245.78125 359.082031 246.777344 C 359.113281 247.710938 359.144531 248.640625 359.175781 249.605469 C 359.199219 250.460938 359.222656 251.316406 359.246094 252.199219 C 359.6875 255.03125 360.515625 256.726562 362.25 259 C 365.824219 259.519531 367.085938 259.277344 370.125 257.25 C 371.015625 254.582031 371.171875 252.570312 371.277344 249.773438 C 371.3125 248.835938 371.351562 247.898438 371.386719 246.929688 C 371.421875 245.949219 371.457031 244.96875 371.492188 243.960938 C 371.53125 242.972656 371.566406 241.980469 371.605469 240.960938 C 371.699219 238.515625 371.789062 236.070312 371.875 233.625 C 372.742188 233.625 373.609375 233.625 374.5 233.625 C 374.628906 237.308594 374.703125 240.988281 374.773438 244.671875 C 374.808594 245.714844 374.847656 246.753906 374.882812 247.828125 C 375.003906 256.484375 375.003906 256.484375 372.542969 259.671875 C 369.109375 262.445312 366.578125 262.832031 362.25 262.5 C 359.300781 261.410156 358.230469 260.390625 356.457031 257.820312 C 354.691406 253.148438 354.972656 248.746094 355.085938 243.796875 C 355.097656 242.820312 355.109375 241.839844 355.121094 240.832031 C 355.152344 238.429688 355.195312 236.027344 355.25 233.625 Z M 355.25 233.625 "/>
<path style=" stroke:none;fill-rule:nonzero;fill:rgb(23.137255%,11.764706%,47.450981%);fill-opacity:1;" d="M 390.25 273 C 391.117188 273 391.984375 273 392.875 273 C 392.875 277.042969 392.875 281.085938 392.875 285.25 C 397.496094 285.25 402.113281 285.25 406.875 285.25 C 406.875 281.207031 406.875 277.164062 406.875 273 C 407.742188 273 408.609375 273 409.5 273 C 409.5 282.238281 409.5 291.480469 409.5 301 C 408.632812 301 407.765625 301 406.875 301 C 406.875 296.667969 406.875 292.335938 406.875 287.875 C 402.253906 287.875 397.636719 287.875 392.875 287.875 C 392.875 292.207031 392.875 296.539062 392.875 301 C 392.007812 301 391.140625 301 390.25 301 C 390.25 291.761719 390.25 282.519531 390.25 273 Z M 390.25 273 "/>
<path style=" stroke:none;fill-rule:nonzero;fill:rgb(26.666668%,15.686275%,49.803922%);fill-opacity:1;" d="M 365.75 273 C 370.949219 273 376.144531 273 381.5 273 C 381.5 273.867188 381.5 274.734375 381.5 275.625 C 377.457031 275.625 373.414062 275.625 369.25 275.625 C 369.25 278.800781 369.25 281.976562 369.25 285.25 C 373.003906 285.25 376.757812 285.25 380.625 285.25 C 380.625 286.117188 380.625 286.984375 380.625 287.875 C 376.582031 287.875 372.539062 287.875 368.375 287.875 C 368.375 291.339844 368.375 294.804688 368.375 298.375 C 372.707031 298.375 377.039062 298.375 381.5 298.375 C 381.5 299.242188 381.5 300.109375 381.5 301 C 376.300781 301 371.105469 301 365.75 301 C 365.75 291.761719 365.75 282.519531 365.75 273 Z M 365.75 273 "/>
<path style=" stroke:none;fill-rule:nonzero;fill:rgb(27.843139%,17.254902%,50.588238%);fill-opacity:1;" d="M 352.625 272.125 C 355.550781 273.179688 356.078125 273.804688 357.875 276.5 C 357.875 277.65625 357.875 278.808594 357.875 280 C 357.007812 280 356.140625 280 355.25 280 C 355.070312 279.441406 354.890625 278.882812 354.703125 278.304688 C 353.59375 276.222656 353.59375 276.222656 350.875 275.734375 C 350.007812 275.699219 349.140625 275.664062 348.25 275.625 C 346.003906 277.871094 346.027344 279.542969 345.625 282.625 C 346.132812 282.765625 346.640625 282.902344 347.164062 283.046875 C 351.949219 284.476562 355.398438 285.84375 358.75 289.625 C 359.265625 293.296875 359.167969 296.167969 357 299.25 C 353.304688 301.714844 349.960938 301.808594 345.625 301 C 343.40625 299.441406 342.667969 298.160156 341.25 295.75 C 341.25 294.882812 341.25 294.015625 341.25 293.125 C 342.40625 293.125 343.558594 293.125 344.75 293.125 C 345.039062 294.570312 345.328125 296.011719 345.625 297.5 C 346.902344 297.546875 348.175781 297.582031 349.453125 297.609375 C 350.164062 297.628906 350.875 297.648438 351.605469 297.671875 C 353.6875 297.6875 353.6875 297.6875 355.25 295.75 C 355.613281 293.597656 355.613281 293.597656 355.25 291.375 C 353.375 289.042969 351.441406 288.125 348.6875 287.054688 C 343.316406 284.726562 343.316406 284.726562 342.125 281.75 C 342.125 278.046875 342.417969 276.273438 344.914062 273.492188 C 347.804688 271.886719 349.363281 271.707031 352.625 272.125 Z M 352.625 272.125 "/>
<path style=" stroke:none;fill-rule:nonzero;fill:rgb(23.529412%,12.54902%,47.843137%);fill-opacity:1;" d="M 448 273 C 449.15625 273 450.308594 273 451.5 273 C 453.808594 277.621094 456.121094 282.238281 458.5 287 C 460.738281 284.015625 462.289062 281.355469 463.914062 278.03125 C 464.609375 276.617188 464.609375 276.617188 465.320312 275.171875 C 465.667969 274.457031 466.015625 273.738281 466.375 273 C 467.53125 273.289062 468.683594 273.578125 469.875 273.875 C 469.613281 274.355469 469.355469 274.835938 469.085938 275.328125 C 467.890625 277.550781 466.722656 279.785156 465.554688 282.023438 C 465.144531 282.777344 464.734375 283.53125 464.3125 284.308594 C 461.425781 289.894531 460.375 294.722656 460.25 301 C 459.382812 301 458.515625 301 457.625 301 C 457.664062 300.433594 457.703125 299.871094 457.742188 299.289062 C 457.714844 290.0625 453.296875 283.140625 448.789062 275.332031 C 448 273.875 448 273.875 448 273 Z M 448 273 "/>
<path style=" stroke:none;fill-rule:nonzero;fill:rgb(27.058825%,16.470589%,50.196081%);fill-opacity:1;" d="M 504 262.5 C 510.375 262.1875 510.375 262.1875 512.75 263.375 C 514.175781 266.230469 514.078125 269.007812 513.625 272.125 C 512.75 273.875 512.75 273.875 511 274.75 C 508.621094 274.953125 506.398438 274.867188 504 274.75 C 504 270.707031 504 266.664062 504 262.5 Z M 504 262.5 "/>
<path style=" stroke:none;fill-rule:nonzero;fill:rgb(23.921569%,12.941177%,48.235294%);fill-opacity:1;" d="M 322 273 C 327.199219 273 332.394531 273 337.75 273 C 337.75 273.867188 337.75 274.734375 337.75 275.625 C 335.441406 275.625 333.128906 275.625 330.75 275.625 C 330.75 284 330.75 292.371094 330.75 301 C 329.882812 301 329.015625 301 328.125 301 C 328.125 292.625 328.125 284.253906 328.125 275.625 C 326.105469 275.625 324.082031 275.625 322 275.625 C 322 274.757812 322 273.890625 322 273 Z M 322 273 "/>
<path style=" stroke:none;fill-rule:nonzero;fill:rgb(33.725491%,24.313726%,54.901963%);fill-opacity:1;" d="M 332.5 248.5 C 338.5625 248.5 344.628906 248.5 350.875 248.5 C 350.015625 254.527344 349.777344 255.90625 345.625 259.875 C 342.726562 261.078125 342.726562 261.078125 340.375 261.625 C 340.601562 258.542969 341.460938 257.9375 343.875 255.828125 C 344.742188 255.140625 345.609375 254.457031 346.5 253.75 C 346.789062 253.171875 347.078125 252.59375 347.375 252 C 342.464844 252 337.558594 252 332.5 252 C 332.5 250.84375 332.5 249.691406 332.5 248.5 Z M 332.5 248.5 "/>
<path style=" stroke:none;fill-rule:nonzero;fill:rgb(29.803923%,19.607843%,52.156866%);fill-opacity:1;" d="M 490.875 261.625 C 492.03125 261.625 493.183594 261.625 494.375 261.625 C 495.53125 263.933594 496.683594 266.246094 497.875 268.625 C 498.164062 266.316406 498.453125 264.003906 498.75 261.625 C 499.617188 261.625 500.484375 261.625 501.375 261.625 C 501.375 265.957031 501.375 270.289062 501.375 274.75 C 497.875 273.875 497.875 273.875 496.765625 272.449219 C 495.96875 270.882812 495.171875 269.316406 494.375 267.75 C 494.085938 270.058594 493.796875 272.371094 493.5 274.75 C 492.632812 274.75 491.765625 274.75 490.875 274.75 C 490.875 270.417969 490.875 266.085938 490.875 261.625 Z M 490.875 261.625 "/>
<path style=" stroke:none;fill-rule:nonzero;fill:rgb(33.333334%,23.529412%,54.509807%);fill-opacity:1;" d="M 482.125 262.5 C 483.726562 262.578125 483.726562 262.578125 485.625 263.375 C 486.921875 265.949219 486.921875 265.949219 488.03125 269.117188 C 488.59375 270.6875 488.59375 270.6875 489.164062 272.292969 C 489.441406 273.101562 489.714844 273.914062 490 274.75 C 488.84375 274.460938 487.691406 274.171875 486.5 273.875 C 486.5 273.296875 486.5 272.71875 486.5 272.125 C 483.902344 272.425781 483.902344 272.425781 481.25 273 C 480.960938 273.578125 480.671875 274.15625 480.375 274.75 C 479.507812 274.75 478.640625 274.75 477.75 274.75 C 478.324219 270.3125 480.246094 266.507812 482.125 262.5 Z M 482.125 262.5 "/>
<path style=" stroke:none;fill-rule:nonzero;fill:rgb(23.529412%,12.156863%,47.843137%);fill-opacity:1;" d="M 408.625 233.625 C 409.492188 233.625 410.359375 233.625 411.25 233.625 C 411.25 242.863281 411.25 252.105469 411.25 261.625 C 410.382812 261.625 409.515625 261.625 408.625 261.625 C 408.625 252.386719 408.625 243.144531 408.625 233.625 Z M 408.625 233.625 "/>
<path style=" stroke:none;fill-rule:nonzero;fill:rgb(95.686275%,94.901961%,96.862745%);fill-opacity:1;" d="M 429.625 276.5 C 432.066406 277.722656 432.25 279.128906 433.234375 281.640625 C 433.699219 282.800781 433.699219 282.800781 434.171875 283.984375 C 434.875 286.125 434.875 286.125 434.875 288.75 C 431.699219 288.75 428.523438 288.75 425.25 288.75 C 427.828125 279.84375 427.828125 279.84375 429.625 276.5 Z M 429.625 276.5 "/>
<path style=" stroke:none;fill-rule:nonzero;fill:rgb(95.294118%,94.509804%,96.470588%);fill-opacity:1;" d="M 455.875 237.125 C 459.015625 240.890625 459.832031 244.695312 461.125 249.375 C 457.949219 249.375 454.773438 249.375 451.5 249.375 C 454.078125 240.46875 454.078125 240.46875 455.875 237.125 Z M 455.875 237.125 "/>
<path style=" stroke:none;fill-rule:nonzero;fill:rgb(92.54902%,91.37255%,94.901961%);fill-opacity:1;" d="M 383.25 326.375 C 386.375 329.5 386.75 333.464844 386.75 337.75 C 384.730469 337.75 382.707031 337.75 380.625 337.75 C 381.042969 333.625 381.472656 330.167969 383.25 326.375 Z M 383.25 326.375 "/>
<path style=" stroke:none;fill-rule:nonzero;fill:rgb(96.078432%,95.686275%,97.254902%);fill-opacity:1;" d="M 506.625 264.25 C 510.125 265.125 510.125 265.125 511.875 266.875 C 511.546875 269.171875 511.546875 269.171875 511 271.25 C 509.554688 271.539062 508.113281 271.828125 506.625 272.125 C 506.625 269.527344 506.625 266.925781 506.625 264.25 Z M 506.625 264.25 "/>
<path style=" stroke:none;fill-rule:nonzero;fill:rgb(22.352941%,11.372549%,47.058824%);fill-opacity:1;" d="M 348.25 273 C 353.78125 272.574219 353.78125 272.574219 356.507812 274.53125 C 357.875 276.5 357.875 276.5 357.875 280 C 357.007812 280 356.140625 280 355.25 280 C 355.007812 279.160156 355.007812 279.160156 354.757812 278.304688 C 353.550781 276.132812 353.550781 276.132812 350.328125 275.84375 C 349.355469 275.773438 348.378906 275.699219 347.375 275.625 C 347.664062 274.757812 347.953125 273.890625 348.25 273 Z M 348.25 273 "/>
<path style=" stroke:none;fill-rule:nonzero;fill:rgb(28.235295%,17.647059%,50.980395%);fill-opacity:1;" d="M 425.25 279.125 C 426.117188 279.125 426.984375 279.125 427.875 279.125 C 427.4375 282.394531 427.109375 284.210938 425.25 287 C 424.382812 287 423.515625 287 422.625 287 C 423.492188 284.402344 424.359375 281.800781 425.25 279.125 Z M 425.25 279.125 "/>
<path style=" stroke:none;fill-rule:nonzero;fill:rgb(24.705882%,13.725491%,48.627451%);fill-opacity:1;" d="M 482.125 262.5 C 483.859375 262.933594 483.859375 262.933594 485.625 263.375 C 485.914062 264.53125 486.203125 265.683594 486.5 266.875 C 483.902344 266.441406 483.902344 266.441406 481.25 266 C 481.539062 264.84375 481.828125 263.691406 482.125 262.5 Z M 482.125 262.5 "/>
</g>
</svg>
